<svg xmlns="http://www.w3.org/2000/svg" width="50" height="50" fill="none" viewBox="0 0 50 50">
    <path fill="none" d="M0 0h50v50H0z"/>
    <circle cx="25" cy="25" r="25" fill="#E5E7EE"/>
    <path fill="none" d="M11.906 14.284h26.191v17.34h-26.19z"/>
    <path fill="#B9BDD2" d="M12.266 13.353a1.002 1.002 0 0 0-1.293.575.998.998 0 0 0 .573 1.291l.72-1.866zm7.021 4.835a1.003 1.003 0 0 0 1.294-.575.998.998 0 0 0-.574-1.291l-.72 1.866zm-7.74-2.969l7.74 2.969.72-1.866-7.74-2.969-.72 1.866zM37.738 13.351a1.003 1.003 0 0 1 1.293.575.998.998 0 0 1-.573 1.291l-.72-1.866zm-7.021 4.835a1.002 1.002 0 0 1-1.294-.575.998.998 0 0 1 .574-1.291l.72 1.866zm7.74-2.969l-7.74 2.969-.72-1.866 7.74-2.969.72 1.866z"/>
    <path stroke="#B9BDD2" stroke-linecap="round" stroke-width="2" d="M18.334 31.624c1.307-2.162 3.75-3.616 6.548-3.616 2.797 0 5.24 1.454 6.547 3.616M19.05 21.666c-.475 1.046-1.628 1.785-2.975 1.785-1.347 0-2.5-.739-2.977-1.785M36.906 21.666c-.476 1.046-1.629 1.785-2.976 1.785s-2.5-.739-2.976-1.785"/>
</svg>
