<svg xmlns="http://www.w3.org/2000/svg" width="60" height="60" fill="none" viewBox="0 0 60 60">
    <path fill="#000" fill-opacity="0" d="M0 0h60v60H0z"/>
    <circle cx="30" cy="30" r="30" fill="#F1D9DD"/>
    <path fill="#000" fill-opacity="0" d="M14.288 17.142h31.428V37.95H14.288z"/>
    <path fill="#4D505E" d="M14.648 16.21a1.002 1.002 0 0 0-1.294.575.998.998 0 0 0 .574 1.29l.72-1.865zm8.57 5.428a1.002 1.002 0 0 0 1.293-.575.998.998 0 0 0-.574-1.291l-.72 1.866zm-9.29-3.562l9.29 3.562.72-1.866-9.29-3.562-.72 1.866zM45.357 16.209a1.002 1.002 0 0 1 1.294.575.998.998 0 0 1-.574 1.29l-.72-1.865zm-8.57 5.428a1.002 1.002 0 0 1-1.293-.575.997.997 0 0 1 .574-1.291l.72 1.866zm9.29-3.562l-9.29 3.562-.72-1.866 9.29-3.562.72 1.866z"/>
    <path stroke="#4D505E" stroke-linecap="round" stroke-width="2" d="M22.001 37.95c1.568-2.594 4.5-4.34 7.857-4.34s6.289 1.746 7.857 4.34M22.86 25.999c-.571 1.256-1.955 2.143-3.571 2.143s-3-.887-3.572-2.143M44.287 25.999c-.571 1.256-1.955 2.143-3.571 2.143-1.617 0-3-.887-3.572-2.143"/>
</svg>
